<?xml version="1.0" encoding="utf-8" ?><svg xmlns="http://www.w3.org/2000/svg" xmlns:xlink="http://www.w3.org/1999/xlink" width="551" height="645" viewBox="237 172 551 645"><defs><linearGradient id="gradient_0" gradientUnits="userSpaceOnUse" x1="416.64948" y1="667.10022" x2="580.83655" y2="284.65363"><stop offset="0" stop-color="#e8c878"/><stop offset="1" stop-color="#e8c878"/></linearGradient></defs><path fill="url(#gradient_0)" d="M408.101 222.346C417.151 212.077 430.068 205.1 443.014 201.071C442.937 215.638 440.39 226.67 432.746 239.274C431.593 242.503 426.197 249.37 423.964 252.059C441.303 244.549 452.918 240.305 471.562 236.612C475.397 235.487 479.562 234.036 481.685 238.52C481.037 241.657 479.382 241.973 476.47 242.449C460.731 245.403 430.548 254.404 417.482 263.613C427.391 263.061 442.202 262.837 451.156 267.785C454.528 269.137 459.011 271.062 461.922 273.259C465.522 274.818 468.419 277.788 471.115 280.579C445.057 296.802 415.638 299.549 389.948 280.909C380.426 288.744 366.522 300.291 359.319 310.522C378.219 303 398.771 300.039 417.549 310.062C407.887 323.717 388.267 334.645 371.946 337.347C360.196 339.292 351.548 338.002 340.373 334.879C332.114 349.334 328.111 355.947 321.66 371.966C326.04 369.06 329.8 365.779 334.18 362.989C348.733 353.72 360.178 352.649 376.634 353.097C370.989 370.663 358.656 385.301 342.301 393.844C331.445 399.44 324.501 400.532 312.765 401.732C311.218 409.157 306.29 435.786 308.969 441.429L309.365 441.527C319.276 423.288 329.789 413.393 350.253 406.918C351.267 406.597 351.491 406.6 352.548 406.676C354.185 409.203 352.712 419.476 352.044 422.626C348.18 441.212 337.043 457.48 321.114 467.806C317.702 469.995 313.901 471.86 310.27 473.68C311.86 480.381 317.51 508.585 320.866 512.872C322.196 510.905 323.223 502.116 323.965 499.025C327.033 486.235 338.266 469.897 349.897 463.751C362.066 486.336 354.073 525.223 334.368 541.89C342.83 555.522 347.922 563.212 358.562 575.26C354.553 555.983 354.32 540.789 364.878 522.69C365.618 521.422 366.963 519.781 368.06 518.814C378.868 528.541 386.493 548.046 386.981 562.472C387.475 577.06 386.284 584 380.514 597.027C390.366 606.225 403.239 615.036 414.703 622.178C411.681 616.883 408.434 611.893 406.116 606.215C401.238 594.271 400.931 581.073 402.94 568.472C403.137 567.238 403.543 566.683 404.512 565.994C409.856 566.076 419.069 575.547 422.899 579.11C435.499 590.831 446.712 618.088 442.414 635.348C491.879 653.349 532.433 654.517 582.201 635.286C579.569 616.7 584.684 600.717 595.778 585.602C599.962 579.9 612.669 567.349 619.071 565.78C619.989 566.16 620.434 566.174 620.752 567.342C626.222 587.45 620.504 605.5 609.349 622.07C619.887 616.028 635.067 605.533 644.259 597.327C635.446 578.453 634.694 562.484 641.548 542.418C644.17 534.741 650.36 523.9 656.892 518.858C667.14 534.314 670.834 550.605 667.183 568.991C666.693 571.347 666.164 573.693 665.596 576.031C676.236 562.887 681.307 556.023 690.195 541.789C675.603 527.362 669.533 513.024 668.923 492.136C668.66 483.096 670.486 471.768 674.69 463.665C687.064 470.777 697.191 486.29 700.62 499.968C701.809 504.709 702.179 509.78 703.286 513.711C709.378 497.876 710.472 489.44 714.317 473.441C693.921 463.475 682.872 452.862 674.632 430.637C672.969 426.151 669.64 411.106 671.357 407.19C674.493 406.201 683.744 410.41 686.862 412.065C701.286 419.718 708.587 429.34 716.055 443.314C716.076 426.407 714.909 418.367 711.783 401.729C681.177 399.975 658.473 381.748 647.676 353.397C656.294 352.555 664.025 352.993 672.476 355.099C668.002 358.328 670.568 360.17 667.636 360.426L667.599 360.985C663.544 360.244 662.115 360.028 658.021 359.995C669.962 380.825 685.704 392.086 709.546 394.657C706.626 389.199 704.387 385.661 700.538 380.775C702.919 378.295 709.688 375.309 713.195 375.95L713.747 375.159C714.375 378.464 715.559 388.633 717.611 390.507C717.16 393.904 717.027 394.954 718.716 398.212L718.628 399.451C720.911 412.099 721.9 421.489 723.254 434.224C730.961 416.441 741.482 399.829 760.173 392.223C763.18 404.881 762.741 418.113 758.904 430.545C752.551 451.721 740.155 463.836 721.368 473.918C718.341 486.004 716.99 495.691 713.054 508.287C726.095 493.106 742.535 483.752 762.478 481.789C761.346 494.111 754.929 508.654 747.059 518.097C732.868 535.123 717.973 542.552 696.493 544.844C690.052 555.41 685.382 562.358 678.074 572.46C692.059 567.628 701.488 561.985 718.038 562.999C721.669 563.221 730.647 563.737 732.994 566.296C733.033 568.447 730.878 570.873 729.614 572.53C709.497 598.907 681.644 610.286 649.556 602.246C645.605 604.934 641.258 608.853 637.429 611.89C632.836 615.518 628.075 618.928 623.162 622.109C627.144 622.015 631.291 621.576 635.329 621.48C649.043 621.155 667.947 624.638 678.193 634.362C673.206 638.907 664.651 643.428 658.559 646.212C636.239 656.412 606.011 656.563 585.672 641.557C571.665 646.964 557.691 651.344 542.782 653.475C539.478 653.947 536.711 654.263 533.497 655.174C541.983 659.44 549.685 663.667 556.918 669.921C560.181 672.743 568.012 677.573 563.067 682.392C559.085 683.412 553.224 676.481 550.279 674.001C542.461 667.534 533.532 662.543 523.928 659.272C514.32 655.942 509.776 655.876 500.13 659.435C490.894 662.843 482.77 666.961 474.943 673.029C471.262 675.883 467.826 680.273 463.702 682.289C460.87 682.249 459.658 681.01 459.48 678.191C463.459 670.348 482.715 658.868 491.039 655.278C487.019 654.102 477.229 652.897 472.378 651.911C459.924 649.379 450.882 646.251 439.121 641.678C425.831 649.559 417.752 652.52 401.691 653.365C383.486 654.323 359.597 646.69 346.251 634.049C354.563 626.091 372.183 621.939 383.364 621.49C388.967 621.266 395.906 621.834 401.659 622.08C394.758 618.269 381.089 607.654 375.497 602.271C352.384 608.752 328.175 603.681 309.758 588.138C304.608 583.792 293.344 572.741 291.08 566.723C291.587 565.709 291.996 565.437 293.326 565.066C312.35 559.763 329.984 565.006 346.753 573.004C340.095 563.938 333.767 554.634 327.783 545.109C315.081 544.26 302.872 539.86 292.549 532.409C276.774 521.089 266.071 504.206 261.915 484.701C261.651 483.461 261.764 482.831 262.44 482.005C265.814 481.56 269.769 482.747 273.036 483.552C288.413 487.345 299.596 496.314 310.89 506.983C307.499 495.209 305.555 486.586 303.37 474.475C289.019 465.603 281.483 461.513 272.35 446.061C262.565 429.808 259.672 410.321 264.312 391.926C283.812 401.417 292.354 414.737 301.193 433.866C302.454 422.259 302.976 411.179 306.099 399.739C281.889 376.263 280.678 336.09 299.024 308.786C309.328 317.321 315.983 335.056 317.583 348.048C317.915 350.75 317.822 357.093 319.069 358.982L319.633 358.668C322.422 350.825 330.394 337.479 335.064 330.391C320.797 299.416 335.084 262.323 360.383 241.69C369.223 259.751 366.763 278.493 361.291 297.046C369.496 288.835 377.775 281.827 386.853 274.637C386.859 271.673 387.012 268.71 387.31 265.761C388.821 251.35 396.795 231.623 408.101 222.346ZM447.92 273.811C429.479 267.754 414.471 268.364 396.851 277.117C409.977 286.154 423.474 288.654 439.309 286.096C443.353 285.443 455.809 281.99 458.464 279.258C457.6 278.349 457.324 278.109 456.332 277.339C453.529 276.07 450.771 274.962 447.92 273.811ZM384.348 628.194C372.914 629.526 369.324 630.18 358.348 634.543C373.28 642.814 388.099 648.131 405.381 646.196C415.538 645.405 421.947 643.274 430.768 638.315C419.358 633.714 396.237 626.289 384.348 628.194ZM593.707 638.466C604.807 643.844 613.346 646.968 626.129 646.646C641.277 645.797 652.37 642.52 665.639 634.638C657.162 630.166 643.048 627.491 633.565 628.211C618.162 629.595 608.021 632.49 593.707 638.466ZM668.942 598.124C688.713 597.711 711.261 586.891 722.126 570.066C718.212 570.045 713.652 569.906 709.798 570.182C689.206 573.005 672.354 581.885 657.272 596.186L657.149 596.84C659.675 598.406 665.844 598.085 668.942 598.124ZM367.678 597.098C367.114 595.383 356.42 587.131 354.144 585.596C337.851 574.602 322.213 569.124 302.449 570.136C310.926 582.899 328.712 594.266 343.732 597.046C350.243 598.251 361.383 598.799 367.678 597.098ZM323.403 537.159C308.916 513.849 297.713 498.581 270.675 489.96C274.839 511.308 301.045 536.632 323.403 537.159ZM703.592 537.21C722.148 532.881 735.307 523.853 745.841 507.626C748.071 504.191 752.81 494.708 753.365 490.775L752.298 490.498C728.997 497.799 713.289 514.924 702.051 536.071L702.08 536.937C702.65 537.066 703.017 537.194 703.592 537.21ZM306.515 389.714L307.184 390.05C308.102 388.592 308.538 385.243 308.972 383.314C311.992 369.9 312.559 356.023 309.611 342.544C308.33 336.689 304.082 325.48 300.184 320.86C289.824 342.997 290.959 370.229 306.515 389.714ZM339.503 321.752C341.487 321.217 344.417 315.634 345.652 313.6C355.992 296.565 361.859 276.141 358.01 256.263C357.87 255.541 357.604 255.004 357.256 254.383C340.694 272.595 331.023 297.476 339.503 321.752ZM678.572 415.779C677.264 420.649 683.854 435.708 686.679 440.445C693.608 452.067 701.797 459.569 713.772 465.676C714.731 459.395 710.462 448.01 707.624 442.406C701.329 429.977 691.191 421.368 678.572 415.779ZM435.875 631.153C436.513 612.251 430.608 598.338 417.9 584.072C416.236 582.203 410.664 577.109 408.585 576.235C407.277 595.596 414.19 613.33 428.764 626.164C430.833 627.986 433.076 630.537 435.875 631.153ZM368.551 530.766C359.429 552.751 361.003 572.199 375.324 591.715C382.094 573.181 382.323 559.367 374.441 540.448C373.391 537.929 370.432 532.653 368.551 530.766ZM406.204 312.559C400.446 311.328 389.761 309.391 383.851 310.7C369.609 312.176 354.415 318.543 345.124 329.71C355.252 331.07 358.966 331.741 369.122 330.882C382.615 328.901 396.068 321.495 406.204 312.559ZM436.092 210.523C426.27 216.041 421.93 218.777 413.696 226.112C400.857 240.541 396.385 250.001 393.654 269.349C405.067 260.205 415.842 252.833 423.818 240.351C424.776 238.851 427.075 235.267 428.137 234.059C428.472 232.811 430.32 228.955 430.947 227.507C433.412 221.809 434.737 216.526 436.092 210.523ZM315.245 394.748C317.217 394.437 319.471 394.02 321.429 393.814C339.309 390.35 352.793 380.477 363.044 365.494C364.246 363.71 365.42 361.906 366.564 360.084L361.871 360.162C341.204 363.64 323.807 375.101 315.245 394.748ZM649.953 590.705C659.582 575.819 664.051 562.055 660.367 544.13C659.538 540.095 657.666 534.305 655.573 530.793C645.926 545.579 641.663 561.306 645.026 578.992C645.541 581.699 647.665 588.901 649.385 590.803L649.953 590.705ZM754.702 402.924C736.759 417.722 725.404 439.022 723.119 462.168C723.005 463.417 723.031 463.99 723.257 465.198C739.649 455.102 748.748 442.34 753.735 423.435C754.937 418.878 755.868 407.375 754.702 402.924ZM614.489 576.286C598.761 590.843 589.597 603.399 588.12 626.022C588.002 627.824 588.004 629.586 589.096 630.995L589.707 631.152C603.83 620.479 612.873 607.162 615.436 589.364C615.88 586.284 616.462 579.636 615.386 576.825L614.489 576.286ZM311.23 465.091C326.099 457.784 337.461 444.878 342.826 429.203C343.623 426.841 346.099 418.542 345.776 416.367L345.428 416.021C331.333 421.992 320.198 433.333 314.486 447.534C312.811 451.759 310.586 459.719 310.498 464.245L311.23 465.091ZM346.827 474.925C330.884 488.926 324.015 514.231 330.87 534.33C332.844 534.007 337.09 528.15 338.302 526.351C348.139 511.749 350.261 494.704 347.393 477.76C347.236 476.809 347.048 475.863 346.827 474.925ZM677.201 474.838C674.919 496.507 674.459 510.928 688.601 529.915C689.801 531.527 691.267 533.115 692.815 534.407C693.697 533.931 693.497 534.119 693.72 533.837C697.752 516.652 696.706 501.795 687.312 486.376C684.831 482.304 681.077 477.646 677.201 474.838ZM269.595 403.103C268.025 420.284 273.278 437.393 284.217 450.734C289.87 457.535 294.222 460.897 301.582 465.468C301.263 449.173 289.323 419.764 276.613 408.852C274.594 407.118 272.036 404.098 269.595 403.103Z"/><path fill="#e8c878" d="M408.101 222.346C417.151 212.077 430.068 205.1 443.014 201.071C442.937 215.638 440.39 226.67 432.746 239.274C432.153 237.581 430.5 234.854 429.623 232.944L428.801 234.423L428.137 234.059C428.472 232.811 430.32 228.955 430.947 227.507C433.412 221.809 434.737 216.526 436.092 210.523C426.27 216.041 421.93 218.777 413.696 226.112C413.246 223.643 412.546 222.891 410.481 221.758C409.672 222.085 408.963 222.225 408.101 222.346Z"/><path fill="#e8c878" d="M471.562 236.612C475.397 235.487 479.562 234.036 481.685 238.52C481.037 241.657 479.382 241.973 476.47 242.449C474.502 239.247 472.974 242.117 470.589 240.522C470.335 238.585 470.668 238.729 471.562 236.612Z"/><path fill="#e8c878" d="M447.92 273.811C450.066 273.709 450.059 273.642 451.463 272.022C451.755 269.687 452.042 270.223 451.135 268.477L451.156 267.785C454.528 269.137 459.011 271.062 461.922 273.259C459.424 272.842 459.117 272.946 456.923 273.952L455.682 275.754L456.187 276.387L456.332 277.339C453.529 276.07 450.771 274.962 447.92 273.811Z"/><path fill="#e8c878" d="M581.58 201.136C600.772 206.874 618.977 220.712 628.453 238.507C635.264 251.296 636.805 260.46 637.608 274.447C647.55 282.66 654.014 289.114 663.256 297.28C657.846 277.699 654.854 261.288 663.999 241.865C690.941 264.755 702.014 296.554 689.512 330.389C696.469 341.918 700.49 349.028 705.885 361.394C707.171 341.208 709.97 324.057 725.075 308.979C729.292 313.153 732.613 322.852 734.535 328.481C742.1 350.631 736.651 383.227 718.628 399.451L718.716 398.212C717.027 394.954 717.16 393.904 717.611 390.507C718.693 388.232 721.005 385.582 722.388 383.343C733.519 365.331 733.838 338.952 723.985 320.668C713.42 336.343 710.947 356.801 713.747 375.159L713.195 375.95C709.688 375.309 702.919 378.295 700.538 380.775C690.681 370.181 681.719 364.386 667.599 360.985L667.636 360.426C670.568 360.17 668.002 358.328 672.476 355.099C686.467 359.637 692.375 363.506 703.284 373.465C698.216 359.882 691.669 346.897 683.761 334.745C666.124 340.824 649.153 338.8 632.502 330.645C622.603 325.812 613.907 318.834 607.046 310.216C622.605 302.415 640.367 302.004 656.752 307.408C659.865 308.469 662.966 309.561 666.056 310.685C658.27 302.416 643.79 287.473 634.387 280.954C617.384 292.32 602.011 296.517 581.499 292.343C571.401 290.189 561.805 286.134 553.222 280.395C568.085 265.729 587.226 262.438 607.272 263.565L606.678 263.184C591.839 253.805 569.012 247.181 551.89 243.331C547.562 242.358 542.073 242.927 543.312 237.168C546.531 233.282 552.804 236.747 557.081 237.453C572.272 239.962 585.914 246.534 600.159 251.792C588.25 235.224 580.758 222.277 581.58 201.136ZM685.291 321.725C691.954 300.667 686.145 278.506 673.209 261.151C671.771 259.221 668.792 255.656 666.938 254.196C662.009 267.566 666.826 290.274 672.974 302.626C674.898 306.49 681.464 319.66 684.892 321.812L685.291 321.725ZM630.575 268.396C628.103 248.429 620.308 233.572 604.448 220.489C601.007 217.65 592.858 212.696 588.743 211.143C591.447 232.224 605.463 249.924 621.861 262.553C623.739 264 628.45 267.682 630.575 268.396ZM565.328 279.412C576.16 284.773 592.243 289.233 604.274 286.413C613.725 285.126 619.923 282.544 627.995 277.292C614.133 270.198 604.846 269.551 589.816 270.114C581.342 271.874 572.571 274.542 565.328 279.412ZM618.678 312.513C629.747 324.773 652.514 333.426 669.03 331.163C672.947 330.915 676.408 330.126 680.236 329.352C665.367 316.901 651.019 308.851 630.731 310.48C630.065 310.535 629.402 310.608 628.74 310.699C624.584 311.133 622.745 311.499 618.678 312.513Z"/><path fill="#e8c878" d="M506.09 372.235C515.912 373.978 524.573 388.61 526.948 397.603C527.8 400.825 527.525 406.635 529.1 409.393C531.31 406.701 532.295 400.921 536.373 402.243C538.548 404.233 539.148 406.562 540.546 409.037C551.94 429.205 545.286 452.656 522.645 460.433C521.428 460.851 520.335 460.416 519.286 459.756C515.339 453.902 530.498 450.836 514.33 437.008C510.429 432.884 509.893 431.699 507.805 426.443C491.292 447.898 507.675 453.029 505.545 459.656C496.815 465.623 476.787 443.425 478.052 431.376C478.2 414.233 494.225 404.768 501.697 390.837C505.018 384.645 502.158 376.139 506.09 372.235ZM494.204 449.02C492.46 439.354 494.722 432.866 500.268 425.074C502.731 421.613 509.081 412.514 513.586 416.491C514.304 418.408 514.2 418.78 514.193 420.887C515.673 435.667 527.547 431.953 529.379 448.927C540.833 437.824 541.408 427.781 535.375 413.77C532.881 416.821 525.739 424.134 521.884 420.384C520.698 416.631 521.234 412.71 521.319 408.73C521.507 399.946 517.699 389.402 511.222 383.329C509.926 389.011 508.602 393.691 505.237 398.524C493.065 416.004 473.13 427.492 494.204 449.02Z"/><path fill="#e8c878" d="M511.939 295.957C513.246 296.302 535.066 308.625 537.001 310.03C544.693 315.616 571.411 327.791 576.446 333.89C577.177 337.462 574.648 338.336 571.598 338.395C564.867 338.525 558.132 338.44 551.399 338.414L512.375 338.386L474.53 338.396C467.173 338.425 459.556 338.582 452.208 338.299C449.735 338.204 449.277 338.047 447.944 336.504C447.367 333.633 448.5 332.701 450.802 331.162C454.662 328.582 458.779 326.283 462.841 324.023C479.263 314.889 495.325 304.716 511.939 295.957ZM464.782 331.602C476.694 332.538 499.311 331.411 512.375 331.527L541.894 331.677C547.401 331.701 554.357 331.924 559.717 331.459C544.729 321.738 528.171 313.424 512.946 303.997C512.616 303.793 512.007 303.895 511.629 303.932L481.873 321.102C477.617 323.554 468.31 328.634 464.782 331.602Z"/><path fill="#e8c878" d="M617.596 716.865C620.59 717.058 624.603 716.961 627.682 716.969C634.498 730.862 640.999 746.48 647.359 760.649C650.832 768.385 656.283 779.464 659.073 787.012L648.929 787.157C646.205 781.379 643.58 775.286 640.969 769.436L629.125 769.535C623.494 769.562 609.785 769.884 604.737 769.132C602.186 775.104 599.598 781.061 596.976 787.002L586.982 787.176C596.138 764.035 608.146 740.256 617.596 716.865ZM608 761.051C612.566 761.46 617.362 761.324 621.962 761.295L637.687 761.37C634.901 755.445 625.013 731.027 622.578 727.79C617.564 738.532 612.998 750.706 608 761.051Z"/><path fill="#e8c878" d="M382.979 716.849C398.006 717.488 416.797 716.993 432.056 717.026L432.06 725.131L393.044 725.041L393.058 747.064L427.342 746.962C427.309 749.727 427.289 752.243 427.396 755.011L393.012 755.079L393.125 778.571C406.576 778.584 420.026 778.445 433.474 778.154L433.243 787.331C428.612 786.768 419.789 787.015 414.814 787.014C404.206 786.981 393.599 787.022 382.992 787.137C383.11 763.708 383.106 740.278 382.979 716.849Z"/><path fill="#e8c878" d="M296.999 717.092C300.143 717.017 303.286 716.901 306.426 716.743C306.226 726.695 306.177 736.649 306.28 746.602C319.47 746.67 332.661 746.654 345.851 746.554C345.518 736.633 345.553 726.702 345.955 716.784C348.6 716.972 352.269 716.891 354.991 716.897C355.021 723.038 355.372 785.469 354.645 786.956L353.624 787C350.631 786.959 348.765 787.113 345.803 787.387C345.524 777.919 345.197 764.442 345.896 755.117C333.407 754.694 318.679 754.983 306.081 755.094L306.11 787.094C303.24 787 299.958 787.078 297.052 787.086L296.999 717.092Z"/><path fill="#e8c878" d="M467.17 469.119C472.198 468.787 479.793 469 485.003 468.997L517.993 468.959C526.193 468.95 534.455 468.825 542.648 468.944C552.272 469.083 563.844 467.375 569.983 476.581C572.61 480.555 573.461 485.444 572.331 490.071C571.206 494.752 568.216 498.77 564.056 501.192C548.836 509.89 534.215 488.779 542.944 484.375C547.509 485.398 550.441 500.137 558.976 495.87C569.393 490.663 567.403 481.483 558.73 476.071C540.107 475.613 520.226 476.222 501.465 476.013C492.518 475.913 472.758 475.517 464.657 476.362C461.196 478.883 458.855 481.028 458.532 485.598C458.34 488.316 459.242 490.998 461.038 493.047C465.62 498.205 471.185 496.185 475.555 492.138C476.598 488.674 476.933 485.205 481.045 484.615C484.602 486.841 483.745 491.817 481.969 494.902C474.572 507.751 454.92 504.815 451.792 490.14C450.788 485.382 451.766 480.42 454.501 476.4C457.801 471.599 461.758 470.044 467.17 469.119Z"/><path fill="#e8c878" d="M697.029 716.129C708.984 715.3 714.462 716.91 724.883 722.267L721.53 730.532C713.139 725.573 702.834 721.722 693.045 726.035C688.447 728.061 687.216 731.172 685.606 735.553C688.559 742.519 695.223 746.647 702.306 747.27C735.031 750.149 737.964 786.587 701.928 788.071C690.977 787.927 683.624 785.18 674.929 778.914C675.957 776.233 677.55 773.21 678.831 770.596C679.697 771.318 680.577 772.024 681.469 772.714C688.61 778.203 697.627 780.156 706.563 779.051C712.996 778.255 719.471 773.7 717.634 766.288C716.023 759.785 706.219 757.498 700.352 756.215C684.068 752.655 670.676 745.054 679.28 726.148C682.037 720.197 690.644 717.56 697.029 716.129Z"/><path fill="#e8c878" d="M525.093 717.022L535.029 716.988C534.936 737.483 534.976 757.978 535.149 778.472L572.095 778.337L572.069 787.113C561.425 786.718 550.471 787.234 539.795 787.023C535.045 786.928 529.91 786.948 525.2 787.323C524.836 763.965 525.374 740.39 525.093 717.022Z"/><path fill="#e8c878" d="M457.592 716.799C460.381 716.989 464.125 716.893 466.995 716.9L467.101 778.476C479.407 778.347 491.713 778.323 504.02 778.405L504.018 787.115C496.55 786.766 487.2 787.08 479.597 787.018C473.3 786.966 463.474 786.739 457.597 787.372C457.431 763.848 457.429 740.323 457.592 716.799Z"/><path fill="#e8c878" d="M508.58 219.787C517.879 217.796 527.029 223.725 529.011 233.025C530.993 242.325 525.055 251.47 515.753 253.443C506.463 255.414 497.333 249.486 495.354 240.198C493.374 230.91 499.294 221.775 508.58 219.787ZM514.221 246.747C519.643 245.574 523.164 240.318 522.184 234.857C521.205 229.397 516.078 225.692 510.586 226.476C506.855 227.009 503.713 229.536 502.393 233.065C501.072 236.595 501.784 240.564 504.248 243.415C506.713 246.266 510.538 247.543 514.221 246.747Z"/><path fill="#e8c878" d="M511.07 500.193C513.157 500.544 513.306 500.498 514.754 501.916C515.432 503.47 515.47 506.93 515.468 508.689C515.425 547.275 515.767 585.892 515.358 624.467C515.344 625.736 513.685 626.525 512.761 627.152C508.543 625.324 508.955 624.986 508.886 620.558C508.625 593.644 508.57 566.727 508.721 539.812L508.749 516.79C508.719 512.593 508.629 508.282 508.644 504.08C508.649 502.493 509.969 501.325 511.07 500.193Z"/><path fill="#e8c878" d="M488.514 500.808C490.271 500.879 492.956 501.354 493.068 503.539C493.558 513.174 493.3 523.088 493.318 532.738L493.289 582.593C493.286 587.423 494.148 607.726 492.162 610.832C489.026 611.177 486.376 610.992 486.313 607.07C485.788 573.996 486.214 540.87 486.082 507.786C486.066 503.929 485.696 503.576 488.514 500.808Z"/><path fill="#e8c878" d="M532.817 500.754C535.358 501.07 537.618 501.478 537.787 504.669C538.11 510.81 537.996 517.038 537.998 523.196L538.017 558.555L538.023 591.479C538.023 596.546 538.072 601.861 537.942 606.945C537.903 608.468 536.73 609.818 535.793 611.043C533.91 611.013 533.454 610.959 531.985 609.935C530.503 607.655 531.006 593.356 531.003 589.445L531 553.513L531.001 519.792C530.999 514.531 530.93 509.041 531.079 503.783C531.122 502.276 531.752 502.004 532.817 500.754Z"/><path fill="#e8c878" d="M493.167 485.085C499.795 484.909 523.715 484.484 531.119 485.558C532.004 485.686 532.588 487.312 532.862 488.283C532.504 490.231 532.047 490.508 530.728 491.962C523.806 492.11 493.44 494.496 491.238 488.411C491.505 486.623 491.93 486.391 493.167 485.085Z"/><path fill="#e8c878" d="M525.558 347.34C527.876 346.981 530.208 347.901 531.657 349.745C533.106 351.59 533.448 354.072 532.551 356.24C531.654 358.407 529.658 359.922 527.329 360.203C523.811 360.628 520.603 358.153 520.119 354.643C519.636 351.132 522.056 347.883 525.558 347.34Z"/><path fill="#e8c878" d="M496.217 347.396C499.63 346.72 502.968 348.859 503.779 352.243C504.591 355.626 502.586 359.047 499.237 359.992C496.95 360.638 494.492 359.98 492.833 358.277C491.174 356.574 490.581 354.1 491.287 351.83C491.993 349.56 493.885 347.858 496.217 347.396Z"/><path fill="#e8c878" d="M554.23 347.392C557.647 346.687 561.006 348.824 561.815 352.218C562.624 355.612 560.591 359.034 557.224 359.947C554.952 360.563 552.525 359.894 550.889 358.2C549.254 356.507 548.67 354.058 549.366 351.809C550.061 349.56 551.925 347.867 554.23 347.392Z"/><path fill="#e8c878" d="M467.47 347.401C470.966 346.773 474.31 349.097 474.941 352.593C475.571 356.089 473.25 359.435 469.754 360.068C466.255 360.701 462.905 358.377 462.274 354.877C461.643 351.378 463.97 348.03 467.47 347.401Z"/></svg>